<?xml version="1.0" standalone="no"?>
<!DOCTYPE svg PUBLIC "-//W3C//DTD SVG 20010904//EN"
 "http://www.w3.org/TR/2001/REC-SVG-20010904/DTD/svg10.dtd">
<svg version="1.0" xmlns="http://www.w3.org/2000/svg"
 width="400.000000pt" height="400.000000pt" viewBox="0 0 400.000000 400.000000"
 preserveAspectRatio="xMidYMid meet">
<metadata>
Created by potrace 1.14, written by Peter Selinger 2001-2017
</metadata>
<g transform="translate(0.000000,400.000000) scale(0.100000,-0.100000)"
fill="#000000" stroke="none">
<path d="M2939 3763 c-1 -5 -1 -11 0 -15 0 -5 -2 -8 -6 -8 -14 0 -63 -47 -56
-54 6 -6 -12 -10 -30 -7 -5 1 -6 -2 -3 -7 5 -9 -28 -42 -44 -42 -5 0 -13 -7
-18 -16 -5 -9 -12 -15 -15 -15 -21 3 -27 0 -21 -11 5 -8 2 -9 -9 -5 -10 4 -16
2 -14 -6 1 -7 -6 -11 -15 -9 -10 2 -18 -2 -18 -8 0 -5 -9 -10 -21 -10 -15 0
-19 -4 -15 -16 5 -14 4 -15 -9 -4 -12 10 -15 10 -15 0 0 -7 -6 -10 -14 -7 -8
3 -17 -1 -20 -10 -4 -9 -14 -13 -25 -10 -12 3 -22 -1 -25 -10 -3 -8 -16 -13
-28 -11 -16 2 -22 -2 -20 -11 3 -12 1 -12 -14 0 -12 9 -15 9 -10 2 4 -7 3 -13
-1 -13 -5 0 -15 6 -22 13 -10 10 -12 9 -9 -2 3 -12 -15 -20 -49 -23 -7 -1 -13
-6 -13 -12 0 -6 -5 -4 -10 4 -6 10 -10 11 -10 2 0 -6 -3 -11 -7 -11 -28 5 -63
-3 -58 -11 8 -13 -18 -8 -27 5 -5 6 -8 5 -8 -2 0 -7 -7 -10 -15 -7 -8 4 -15 1
-15 -5 0 -6 -5 -11 -11 -11 -5 0 -7 6 -4 13 4 6 -1 3 -9 -7 -9 -11 -16 -15
-16 -9 0 7 -9 11 -20 10 -11 -1 -20 -5 -20 -9 0 -5 -11 -6 -25 -2 -14 3 -25 2
-25 -4 0 -5 -12 -7 -26 -4 -16 3 -24 1 -21 -4 3 -6 -3 -10 -13 -10 -10 0 -17
3 -15 6 8 13 -35 8 -46 -6 -9 -11 -15 -12 -25 -3 -8 7 -14 7 -14 2 0 -6 -18
-9 -40 -7 -22 2 -38 -1 -35 -6 6 -10 -15 -8 -34 4 -9 6 -12 5 -8 -1 6 -9 -14
-12 -100 -17 -13 0 -23 -5 -23 -11 0 -5 -5 -3 -10 5 -9 13 -10 13 -10 0 0 -13
-1 -13 -10 0 -5 8 -10 10 -10 3 0 -6 -13 -10 -30 -9 -16 1 -30 -1 -30 -6 0 -4
-7 -5 -15 -2 -8 4 -22 1 -30 -6 -12 -10 -15 -10 -15 0 0 8 -4 9 -12 3 -7 -5
-31 -11 -53 -12 -22 -2 -42 -6 -45 -11 -3 -4 -13 -6 -22 -4 -10 1 -18 -2 -18
-7 0 -4 -7 -6 -15 -3 -8 4 -15 1 -15 -6 0 -10 -3 -10 -15 0 -12 10 -16 9 -20
-2 -4 -9 -16 -14 -31 -12 -13 1 -24 -2 -24 -7 0 -6 -4 -7 -10 -4 -5 3 -10 -2
-11 -12 0 -10 -3 -13 -5 -7 -3 6 -16 9 -30 6 -16 -3 -21 -7 -14 -12 7 -4 -6
-10 -29 -14 -23 -3 -41 -10 -41 -14 0 -4 -11 -12 -25 -19 -14 -6 -23 -7 -19
-2 3 5 -2 6 -10 3 -9 -3 -13 -11 -9 -17 4 -6 0 -8 -10 -4 -10 3 -17 3 -17 -2
0 -4 -12 -14 -27 -21 -16 -8 -37 -21 -47 -30 -15 -11 -17 -12 -11 -1 5 10 4
12 -3 7 -7 -4 -12 -15 -12 -24 0 -14 -2 -14 -9 -3 -7 11 -10 11 -17 0 -14 -22
-59 -57 -50 -39 4 9 2 8 -7 -2 -8 -10 -19 -18 -26 -18 -6 0 -11 -7 -11 -15 0
-8 -3 -14 -7 -14 -22 4 -33 -2 -27 -13 5 -8 2 -9 -10 -5 -9 4 -15 3 -12 -2 3
-5 -2 -15 -11 -22 -14 -12 -16 -12 -9 1 4 8 0 6 -8 -4 -9 -11 -16 -23 -16 -28
0 -4 -6 -5 -14 -2 -8 3 -16 -3 -19 -16 -3 -12 -10 -19 -16 -15 -6 3 -11 1 -11
-4 0 -6 -8 -11 -17 -11 -15 0 -16 -2 -3 -10 13 -9 7 -14 -12 -11 -5 0 -8 -6
-8 -14 0 -8 -7 -15 -16 -15 -8 0 -13 -4 -9 -9 3 -5 -3 -12 -14 -16 -10 -3 -18
-13 -17 -23 0 -9 -5 -16 -12 -14 -7 1 -16 -6 -19 -15 -4 -10 -12 -24 -19 -30
-7 -7 -22 -28 -34 -48 -12 -19 -26 -35 -31 -35 -6 0 -7 -4 -4 -10 3 -5 1 -10
-5 -10 -6 0 -8 -4 -5 -10 3 -5 2 -10 -3 -10 -5 0 -15 -13 -22 -30 -7 -16 -16
-28 -20 -25 -5 3 -6 -4 -3 -15 3 -12 0 -20 -6 -20 -7 0 -9 -4 -6 -10 3 -5 1
-10 -4 -10 -6 0 -11 -3 -10 -7 2 -17 -14 -53 -23 -53 -6 0 -4 -8 3 -17 10 -11
10 -14 2 -9 -9 5 -13 1 -13 -13 0 -11 -5 -23 -11 -26 -6 -4 -8 -13 -5 -20 2
-7 2 -16 -2 -19 -7 -7 -13 -41 -12 -73 0 -13 -4 -23 -9 -23 -5 0 -7 -13 -5
-30 2 -16 -1 -32 -6 -35 -7 -4 -7 -13 0 -24 5 -10 6 -21 3 -25 -11 -10 -9 -56
2 -56 5 0 3 -5 -5 -10 -13 -9 -13 -11 0 -20 12 -8 12 -10 1 -10 -11 0 -11 -3
-1 -15 10 -12 10 -15 -1 -15 -10 0 -11 -2 -2 -8 7 -4 14 -24 16 -44 2 -20 11
-48 21 -63 12 -18 14 -25 5 -20 -8 3 -4 -2 9 -13 24 -22 30 -38 10 -26 -7 4 2
-7 21 -25 19 -17 30 -31 25 -31 -5 0 3 -8 19 -18 15 -10 24 -23 20 -27 -5 -5
0 -3 10 4 12 10 17 10 17 2 0 -7 5 -9 10 -6 6 4 9 1 8 -5 -3 -11 16 -19 50
-22 6 -1 12 -5 12 -10 0 -5 7 -2 16 6 14 15 28 20 47 17 4 0 6 5 5 11 -2 7 2
12 9 11 7 -2 10 3 7 11 -3 9 4 16 21 20 16 4 23 11 19 18 -5 8 -2 9 10 5 9 -4
15 -3 11 2 -3 5 9 20 27 32 18 13 43 35 56 49 19 21 22 22 17 5 -4 -12 0 -8
10 8 8 15 20 27 25 27 5 0 25 16 46 35 35 34 33 43 -8 36 -5 0 -8 4 -8 9 0 7
-7 7 -21 -1 -15 -8 -19 -8 -15 0 4 6 0 12 -8 12 -32 3 -36 4 -55 21 -11 9 -22
14 -25 11 -3 -4 -6 0 -6 7 0 7 -3 11 -6 7 -7 -7 -79 63 -79 78 -1 6 -6 9 -13
8 -7 -2 -9 4 -5 15 3 9 3 14 -2 10 -10 -9 -35 37 -35 63 0 11 -4 19 -10 19 -5
0 -10 5 -10 11 0 5 6 7 13 3 9 -6 9 -4 -1 8 -7 9 -13 32 -14 52 -1 20 -6 36
-12 36 -8 0 -8 2 0 8 15 10 27 45 13 36 -15 -9 0 38 15 48 8 5 7 8 -2 8 -10 0
-10 5 -2 21 7 11 9 23 6 26 -3 3 2 12 12 20 11 9 11 12 2 7 -12 -6 -13 -4 -2
7 6 7 12 21 12 31 0 10 7 21 15 24 8 4 13 10 10 14 -3 5 5 19 17 31 13 12 16
19 8 15 -8 -4 -4 2 10 13 14 11 22 21 18 21 -5 0 10 18 32 41 21 22 44 38 50
34 6 -4 9 -1 8 7 -2 7 3 12 10 10 6 -1 12 5 12 13 0 8 7 15 15 15 8 0 15 6 15
13 0 8 4 7 10 -3 6 -10 10 -11 10 -2 0 6 5 12 11 12 7 0 18 8 26 18 8 9 12 11
8 5 -3 -7 -2 -13 3 -13 6 0 13 8 16 17 6 15 8 15 16 3 7 -11 10 -12 10 -2 0 7
5 10 10 7 6 -3 10 -1 10 6 0 7 3 9 6 6 4 -3 16 -2 27 4 12 7 17 7 13 1 -3 -6
2 -9 11 -8 9 2 18 7 20 12 2 6 17 9 33 8 17 -1 30 1 30 5 0 10 31 7 49 -4 10
-6 12 -4 6 5 -6 10 -4 12 7 7 9 -3 20 -1 26 5 6 6 12 6 17 -3 6 -8 4 -10 -5
-4 -9 5 -11 4 -6 -4 5 -8 12 -9 20 -2 7 6 57 10 112 9 78 0 101 -3 101 -14 0
-8 -4 -14 -9 -14 -5 0 -6 -4 -3 -10 3 -5 0 -10 -7 -10 -9 0 -9 -3 2 -10 11 -7
11 -10 2 -10 -7 0 -10 -4 -7 -10 3 -5 0 -10 -7 -10 -9 0 -9 -3 2 -10 10 -6 11
-10 2 -10 -6 0 -11 -3 -11 -7 3 -20 -2 -44 -8 -40 -5 3 -9 -5 -10 -16 -4 -34
-8 -51 -17 -66 -6 -9 -5 -12 2 -7 6 3 4 -7 -4 -24 -9 -16 -13 -34 -9 -40 3 -5
1 -10 -5 -10 -6 0 -9 -4 -6 -8 3 -5 -1 -21 -9 -36 -8 -14 -10 -24 -5 -21 6 3
7 -1 4 -9 -3 -9 -9 -14 -13 -11 -4 2 -8 -2 -8 -10 0 -8 4 -12 9 -9 4 3 8 0 8
-5 0 -6 -8 -11 -17 -12 -10 0 -13 -3 -7 -5 7 -3 10 -14 7 -24 -3 -11 -8 -18
-12 -16 -4 3 -6 -13 -5 -35 1 -28 -2 -39 -11 -35 -8 3 -10 -4 -7 -20 2 -13 -2
-32 -9 -41 -12 -15 -12 -16 1 -8 13 8 13 7 0 -10 -8 -10 -14 -20 -12 -22 8
-11 0 -33 -10 -27 -10 5 -10 4 -1 -6 8 -9 9 -19 2 -32 -5 -10 -7 -18 -3 -18 3
0 1 -6 -5 -14 -6 -7 -8 -22 -4 -31 4 -11 2 -16 -4 -12 -5 3 -10 0 -10 -8 0 -8
5 -15 11 -15 6 0 5 -4 -3 -9 -7 -5 -11 -15 -9 -22 3 -8 -2 -20 -11 -27 -9 -8
-10 -11 -3 -7 17 9 15 -5 -5 -27 -16 -18 -16 -18 1 -12 17 6 17 5 3 -22 -8
-16 -12 -35 -10 -42 3 -7 -1 -19 -7 -27 -10 -12 -10 -15 0 -15 9 0 9 -4 -1
-17 -12 -14 -12 -16 0 -8 11 6 12 5 5 -6 -5 -8 -7 -22 -6 -31 2 -10 0 -18 -5
-18 -4 0 -6 -28 -5 -61 3 -46 1 -59 -8 -54 -7 4 -4 -5 6 -21 11 -15 13 -25 6
-21 -13 9 -13 -18 1 -40 4 -6 3 -15 -3 -18 -8 -5 -8 -11 0 -20 8 -9 8 -15 0
-20 -6 -4 -7 -12 0 -24 6 -12 5 -22 -3 -30 -9 -10 -9 -12 3 -9 16 3 21 -30 6
-50 -6 -9 -4 -11 7 -6 12 4 15 0 13 -20 -2 -14 1 -26 5 -26 5 0 9 -9 9 -20 0
-11 4 -20 9 -20 5 0 12 -7 15 -16 4 -10 2 -13 -7 -8 -6 4 -4 -2 6 -13 9 -11
14 -23 10 -26 -3 -4 1 -7 11 -7 9 0 15 -4 12 -9 -3 -5 1 -11 9 -15 8 -3 15
-10 15 -16 0 -14 19 -33 48 -49 12 -7 20 -16 17 -21 -3 -5 3 -7 15 -5 11 2 19
-1 17 -7 -1 -6 7 -12 18 -14 11 -1 21 -8 23 -13 2 -6 12 -11 23 -11 10 0 19
-4 19 -8 0 -4 12 -9 27 -10 15 -1 30 -7 34 -14 4 -6 14 -8 23 -5 9 4 16 2 16
-2 0 -5 9 -7 20 -4 12 3 20 0 20 -7 0 -10 3 -10 15 0 12 10 15 10 15 0 0 -10
3 -10 14 -1 11 10 16 9 24 -5 8 -15 9 -15 15 1 4 10 12 13 19 8 20 -12 38 -12
38 -1 0 6 7 4 17 -3 14 -12 16 -12 8 0 -6 11 -3 13 13 9 12 -4 20 -2 16 3 -3
5 4 9 15 9 12 0 21 5 21 10 0 6 9 10 21 10 13 0 18 4 13 13 -5 9 -4 9 6 0 11
-10 17 -8 31 8 10 11 21 21 26 22 4 1 7 6 5 11 -2 5 5 3 14 -5 10 -8 15 -9 12
-4 -3 6 5 20 18 33 13 12 24 19 24 15 0 -4 5 -1 10 7 6 10 10 11 10 3 0 -7 6
-13 14 -13 8 0 24 -13 37 -30 13 -16 30 -30 37 -30 6 0 12 -4 12 -8 0 -13 54
-40 69 -34 8 3 11 0 7 -7 -5 -7 1 -11 14 -11 12 0 31 -5 42 -11 16 -9 19 -8
12 3 -6 10 -5 11 7 2 19 -15 99 -23 99 -9 0 5 5 3 10 -5 7 -10 13 -11 18 -5 4
6 17 10 30 9 12 -1 22 4 22 10 0 6 5 4 10 -4 5 -8 10 -10 10 -4 0 6 7 11 15
12 8 1 22 3 30 4 8 1 17 8 20 16 4 12 8 12 22 1 12 -10 14 -10 9 -1 -4 7 -2
12 4 12 6 0 18 7 27 15 8 8 19 13 24 10 5 -4 9 -1 9 4 0 6 3 10 8 9 6 -2 47
30 96 77 12 11 25 19 29 17 5 -1 6 2 3 7 -4 5 2 14 11 20 10 6 14 11 9 11 -6
0 -1 8 10 19 38 37 65 72 59 80 -3 5 2 11 10 15 8 3 15 12 15 20 0 8 3 16 8
18 10 4 47 81 45 95 0 7 3 10 8 7 5 -3 9 0 9 6 0 6 5 8 13 4 8 -5 8 -2 -2 9
-9 11 -10 17 -2 17 6 0 10 3 9 8 -1 4 5 21 12 37 7 17 12 35 11 42 -1 6 4 15
10 19 8 5 9 3 4 -7 -5 -8 -4 -11 0 -6 5 4 10 19 12 35 5 48 6 52 16 52 5 0 7
7 3 15 -3 8 0 15 6 15 6 0 8 3 5 7 -4 3 -1 13 6 21 10 13 9 14 -3 7 -13 -8
-13 -7 0 9 8 10 13 33 12 50 -2 24 0 28 7 16 6 -8 11 -10 11 -4 0 5 -5 15 -11
21 -7 7 -7 13 0 17 5 4 7 14 4 23 -4 10 -2 14 4 10 7 -5 9 0 6 13 -3 13 0 20
8 20 9 1 8 4 -4 11 -18 10 -18 11 0 32 10 11 12 17 5 13 -16 -10 -13 25 3 36
6 5 5 8 -3 8 -10 0 -10 5 -2 20 8 15 8 20 -2 20 -9 0 -9 3 -1 11 13 13 6 42
-8 33 -5 -3 -6 2 -3 10 3 9 11 13 18 9 6 -4 4 1 -4 12 -14 17 -13 18 16 13 25
-3 31 -1 26 11 -4 9 -1 12 7 7 7 -5 18 0 27 10 9 11 12 12 8 4 -6 -11 -2 -10
13 2 11 10 25 18 31 18 7 0 11 3 11 8 -3 17 1 32 9 29 4 -1 8 2 9 6 1 5 10 15
20 23 10 7 14 14 9 14 -6 0 -1 7 10 15 14 11 16 15 4 15 -13 1 -13 2 0 13 16
13 21 112 7 135 -5 6 -5 12 -1 12 4 0 0 6 -11 13 -10 8 -15 19 -11 26 4 6 4
11 -1 10 -16 -2 -53 14 -53 23 0 6 -8 8 -19 5 -10 -2 -26 0 -36 6 -14 7 -16 7
-10 -3 6 -10 4 -12 -7 -7 -9 3 -21 0 -28 -6 -10 -9 -11 -9 -6 3 4 8 1 7 -8 -4
-8 -10 -20 -15 -27 -10 -8 4 -10 3 -5 -4 4 -7 3 -12 -2 -12 -5 0 -9 -7 -9 -15
0 -8 4 -12 9 -9 4 3 8 0 8 -5 0 -6 7 -11 15 -11 8 0 19 -9 25 -20 6 -11 7 -20
3 -20 -4 0 -2 -5 4 -11 16 -16 5 -39 -14 -32 -10 4 -14 2 -10 -4 4 -6 0 -13
-8 -17 -8 -3 -15 0 -15 7 0 8 -4 6 -10 -3 -8 -13 -10 -12 -10 2 0 10 -3 17 -7
17 -17 -3 -36 1 -31 7 8 7 -40 54 -55 54 -7 0 -6 4 3 10 10 6 11 10 3 10 -7 0
-13 7 -13 17 0 9 -3 14 -6 10 -8 -8 -34 18 -34 33 0 6 -4 9 -10 5 -5 -3 -18 3
-30 15 -12 12 -20 15 -20 8 0 -8 -3 -9 -8 -3 -10 15 -61 18 -77 5 -9 -8 -15
-8 -20 0 -5 8 -11 8 -20 0 -8 -7 -20 -8 -26 -4 -8 5 -9 3 -4 -6 6 -10 4 -12
-8 -7 -9 3 -18 0 -21 -9 -3 -8 -9 -13 -14 -12 -4 2 -20 -9 -34 -24 -14 -15
-28 -25 -31 -21 -4 3 -7 2 -8 -3 -2 -30 -9 -49 -19 -52 -7 -3 -7 -9 2 -20 11
-13 10 -15 -4 -9 -16 6 -16 4 -1 -28 9 -19 21 -31 26 -28 6 3 7 1 3 -6 -5 -7
7 -27 28 -49 20 -20 36 -42 36 -50 0 -7 5 -10 10 -7 6 3 10 -3 10 -14 0 -12 4
-21 9 -21 6 0 8 -9 6 -20 -3 -13 2 -20 12 -20 13 0 13 -3 3 -15 -11 -14 -7
-19 12 -16 4 0 5 -6 2 -14 -4 -8 -3 -23 2 -32 9 -20 14 -63 15 -111 0 -18 4
-30 8 -28 9 6 8 -31 -2 -40 -4 -4 -1 -14 6 -22 10 -13 9 -14 -1 -8 -11 6 -12
0 -8 -29 3 -20 3 -34 -1 -32 -5 3 -7 -11 -7 -31 1 -21 -5 -45 -14 -55 -15 -17
-14 -17 4 -11 16 6 17 5 7 -7 -7 -7 -13 -21 -13 -32 0 -11 -5 -15 -11 -11 -7
4 -7 -1 1 -16 8 -15 8 -20 1 -16 -7 5 -11 -3 -11 -19 0 -15 -4 -24 -10 -20 -6
4 -10 3 -9 -2 4 -22 -3 -42 -21 -63 -24 -28 -26 -37 -3 -19 13 11 13 8 -2 -12
-11 -15 -23 -25 -28 -22 -4 2 -7 1 -6 -4 5 -27 -32 -79 -46 -65 -5 4 -5 2 -2
-4 3 -6 -16 -35 -42 -64 -36 -39 -53 -52 -66 -47 -12 5 -16 3 -12 -7 4 -10 -3
-17 -24 -21 -16 -4 -27 -10 -24 -14 2 -5 -7 -7 -20 -5 -14 1 -25 -2 -25 -8 0
-6 -7 -4 -17 3 -11 10 -14 10 -9 2 10 -17 -16 -17 -33 -1 -11 10 -13 10 -7 1
4 -7 2 -13 -4 -13 -6 0 -13 7 -17 16 -5 13 -7 13 -14 2 -7 -10 -9 -10 -9 0 0
6 -7 12 -15 12 -8 0 -15 5 -15 11 0 5 -4 7 -10 4 -6 -3 -10 1 -10 10 0 9 -4
13 -10 10 -5 -3 -10 0 -10 8 0 8 7 17 15 21 8 3 15 13 15 23 0 15 2 16 10 3 8
-13 10 -12 10 3 0 9 5 17 11 17 5 0 7 5 4 10 -3 6 1 10 9 10 9 0 15 6 14 13
-2 6 3 11 11 9 8 -2 11 3 8 13 -4 8 -2 15 2 15 12 0 51 67 51 86 0 8 4 13 9
10 4 -3 14 12 21 34 7 22 16 37 21 35 4 -3 6 7 4 21 -1 15 3 28 12 31 10 4 11
9 3 18 -8 10 -8 15 1 21 8 5 9 3 4 -6 -6 -9 -4 -11 4 -6 7 5 10 14 7 21 -2 7
-2 16 2 19 6 7 12 29 15 63 2 12 6 25 10 29 3 4 2 15 -3 25 -7 12 -7 20 0 24
5 3 10 13 10 21 0 9 -5 12 -12 8 -7 -5 -8 -3 -3 7 12 19 13 69 2 76 -6 4 -7 1
-2 -7 5 -9 4 -11 -3 -6 -9 5 -8 12 1 28 9 16 9 22 -1 25 -6 3 -10 9 -6 14 3 5
0 9 -6 9 -7 0 -10 6 -7 14 3 8 -5 22 -18 32 -17 13 -21 20 -12 26 8 5 7 8 -5
8 -10 0 -18 5 -18 10 0 6 -7 10 -15 10 -8 0 -15 5 -15 12 0 6 -3 8 -7 5 -3 -4
-12 1 -20 11 -11 13 -16 14 -20 4 -4 -10 -8 -9 -18 4 -11 16 -50 31 -41 15 3
-4 -4 -7 -14 -7 -10 0 -17 4 -14 7 2 4 -19 7 -46 6 -28 0 -53 -4 -56 -8 -3 -5
-11 -6 -19 -2 -8 3 -15 1 -15 -5 0 -5 -10 -9 -22 -8 -15 1 -22 -4 -20 -13 3
-12 1 -12 -14 0 -10 8 -15 9 -11 3 4 -7 -1 -18 -10 -25 -12 -10 -14 -10 -9 -1
4 6 2 12 -3 12 -6 0 -11 -7 -11 -15 0 -14 -12 -19 -33 -16 -4 0 -6 -5 -5 -11
2 -7 -2 -12 -9 -11 -8 2 -10 -4 -6 -14 4 -10 2 -14 -5 -9 -6 3 -13 -3 -17 -14
-3 -11 -11 -20 -16 -20 -6 0 -7 -4 -4 -10 3 -6 1 -10 -5 -10 -6 0 -8 -4 -5
-10 3 -5 1 -10 -4 -10 -6 0 -11 -7 -11 -15 0 -8 -4 -15 -10 -15 -5 0 -10 -5
-10 -11 0 -5 5 -7 11 -4 6 4 5 -2 -2 -13 -7 -12 -16 -19 -19 -17 -3 2 -6 -4
-6 -13 -1 -9 -5 -26 -9 -36 -7 -15 -5 -17 6 -11 8 5 5 -2 -6 -15 -11 -13 -14
-20 -7 -16 6 4 12 2 12 -3 0 -6 -5 -11 -11 -11 -5 0 -7 -5 -4 -10 3 -5 0 -10
-7 -10 -9 0 -10 -2 -2 -8 7 -4 11 -18 10 -32 -1 -14 3 -31 8 -39 8 -11 8 -13
-1 -8 -10 6 -11 -7 -7 -55 4 -35 6 -70 6 -78 1 -8 5 -20 10 -27 5 -7 7 -17 3
-23 -3 -5 0 -10 7 -10 9 0 9 -3 -2 -10 -8 -5 -10 -10 -4 -10 7 0 15 -7 18 -16
4 -10 2 -13 -7 -8 -6 4 -3 -3 8 -16 13 -15 15 -21 5 -16 -8 4 -6 0 4 -8 15
-12 16 -16 5 -16 -10 -1 -7 -6 8 -19 17 -14 19 -21 10 -31 -9 -10 -9 -11 1 -6
7 4 12 1 12 -8 0 -9 5 -16 10 -16 6 0 10 -7 10 -16 0 -8 4 -13 9 -9 16 9 3
-39 -14 -51 -8 -6 -12 -14 -8 -18 4 -4 0 -4 -10 0 -11 4 -17 1 -17 -7 0 -7 -3
-9 -7 -6 -3 4 -11 3 -17 -2 -19 -15 -55 -19 -60 -7 -3 8 -5 8 -5 -1 -1 -13
-54 -2 -75 16 -7 6 -16 8 -19 4 -4 -3 -7 -1 -7 5 0 7 -7 12 -15 12 -8 0 -15 5
-15 11 0 5 -5 7 -10 4 -6 -4 -10 -3 -9 2 3 19 -2 34 -10 28 -9 -5 -27 32 -23
48 1 4 -4 7 -11 7 -8 0 -14 7 -15 15 -1 8 -3 22 -4 30 -1 8 -6 15 -11 15 -5 0
-3 8 4 17 12 14 12 15 0 9 -10 -7 -12 1 -10 37 2 25 1 43 -3 40 -5 -2 -8 1 -8
6 0 6 5 11 11 11 6 0 7 5 2 13 -11 18 -12 37 -2 37 6 0 5 8 -1 20 -8 15 -8 20
2 20 9 0 9 3 -2 10 -12 8 -12 10 -1 10 11 0 11 3 0 17 -12 14 -12 16 0 8 11
-6 13 -4 8 7 -3 9 0 21 6 28 9 10 9 11 -3 5 -13 -8 -13 -6 -2 7 9 12 10 18 2
23 -7 4 -8 11 -1 18 5 7 11 21 13 32 1 11 8 23 13 27 6 5 5 8 -4 8 -11 0 -11
3 -1 15 7 8 9 15 4 15 -5 0 -2 5 6 10 12 8 12 10 1 10 -10 0 -10 6 4 26 9 14
14 28 11 31 -3 3 2 12 12 20 16 14 16 14 -2 8 -19 -6 -19 -5 -3 13 12 13 14
21 6 29 -8 8 -7 13 2 18 8 6 10 4 4 -5 -5 -8 -4 -11 2 -7 6 4 13 16 16 27 3
13 1 18 -6 13 -6 -4 0 9 13 27 13 18 17 30 9 25 -8 -5 -6 1 5 13 10 12 16 28
12 37 -3 9 -2 13 4 10 6 -3 10 3 10 14 0 12 5 21 11 21 6 0 9 9 6 20 -3 11 -1
18 4 14 5 -3 9 4 9 15 0 12 5 21 10 21 6 0 9 3 9 8 -4 21 2 32 14 26 8 -5 8
-2 -2 9 -12 15 -9 21 11 18 4 0 5 8 3 19 -2 11 1 20 7 20 5 0 8 7 4 15 -3 8
-1 15 4 15 6 0 10 9 10 21 0 11 4 18 8 15 4 -2 9 5 9 17 1 11 12 34 24 50 12
17 17 27 10 23 -7 -5 -9 -1 -5 8 3 9 11 16 16 16 6 0 5 7 -2 16 -8 8 -9 14 -4
12 5 -2 10 1 11 5 1 5 10 15 20 24 10 8 11 11 3 7 -12 -7 -13 -5 -3 8 7 8 10
18 6 21 -3 4 -1 7 6 7 7 0 9 5 6 10 -3 6 -1 10 4 10 6 0 10 3 10 8 -3 20 2 32
13 26 6 -4 8 -3 5 3 -3 5 0 21 8 36 7 14 11 28 7 31 -3 3 0 6 7 6 7 0 9 5 6
10 -3 6 -1 10 4 10 6 0 11 7 11 16 0 8 4 13 9 9 5 -3 12 -1 16 5 4 7 13 6 27
-1 15 -8 19 -8 14 0 -4 6 -2 11 3 11 6 0 11 -4 11 -8 0 -4 9 -8 20 -9 11 -1
18 2 16 6 -3 4 1 8 9 8 8 0 12 -4 9 -9 -7 -11 13 -10 36 2 13 7 21 7 25 0 3
-5 11 -10 16 -10 6 0 8 4 5 8 -6 10 30 9 40 -1 11 -11 26 -8 19 3 -8 13 17 9
26 -4 4 -5 13 -5 20 0 8 5 36 10 64 12 27 2 52 8 56 14 9 13 20 12 30 -4 7
-10 9 -10 9 0 0 7 5 10 10 7 6 -3 10 -1 10 5 0 7 7 10 15 7 8 -4 17 -2 21 4 3
6 11 8 17 6 7 -2 18 3 25 12 10 12 12 13 6 1 -7 -13 -5 -13 9 -1 9 7 17 10 17
5 0 -5 5 -1 10 8 6 9 24 19 40 23 17 4 28 11 24 16 -3 5 3 9 13 9 9 0 36 21
60 47 24 25 43 43 43 39 0 -4 6 -1 14 6 8 7 12 16 9 21 -2 4 1 7 8 7 7 0 9 3
6 7 -4 3 2 12 12 20 21 14 51 67 51 90 0 8 4 11 10 8 5 -3 7 0 4 8 -3 8 2 17
10 20 9 4 13 13 10 22 -3 8 -1 15 5 15 6 0 8 7 5 15 -4 8 -2 15 4 15 5 0 9 13
8 29 -1 16 3 29 8 28 6 -1 10 8 10 21 -1 12 2 22 6 22 3 0 6 10 5 23 -1 12 3
25 8 29 7 4 7 11 -1 20 -8 10 -8 18 -1 25 5 5 10 32 11 61 2 32 6 48 13 44 5
-3 4 1 -3 10 -8 10 -9 19 -3 22 11 7 9 24 -9 56 -12 23 -12 24 3 12 13 -11 15
-10 10 7 -3 12 -10 21 -15 21 -5 0 -6 5 -3 10 3 6 4 10 1 10 -3 0 -7 -3 -7 -7z
m-806 -1840 c-4 -11 -3 -14 5 -9 7 4 15 1 18 -8 3 -9 12 -16 20 -16 8 0 15 -6
15 -12 4 -33 -3 -73 -14 -87 -10 -12 -9 -13 3 -6 12 7 13 6 3 -7 -7 -8 -10
-18 -6 -21 3 -4 1 -7 -6 -7 -8 0 -11 -7 -7 -15 3 -8 1 -15 -4 -15 -6 0 -10 -6
-10 -14 0 -7 -7 -19 -15 -26 -12 -10 -13 -16 -4 -26 8 -9 8 -14 1 -14 -6 0
-14 -9 -17 -20 -4 -12 -11 -17 -18 -14 -7 4 -9 4 -5 -1 4 -4 2 -15 -5 -23 -9
-13 -9 -14 1 -8 6 4 12 2 12 -3 0 -6 -7 -11 -16 -11 -8 0 -13 -4 -10 -9 4 -5
-3 -7 -15 -4 -13 4 -17 8 -9 13 8 5 7 12 -5 24 -12 12 -13 16 -3 16 8 0 9 3 2
8 -16 11 -25 42 -12 42 7 0 6 5 -2 15 -7 8 -9 15 -5 15 4 0 3 6 -4 13 -8 10
-7 17 1 25 9 9 9 12 -1 12 -11 0 -11 3 -1 15 10 12 10 15 0 15 -10 0 -10 3 0
15 10 12 10 15 -1 15 -9 0 -10 3 -4 8 12 8 18 29 17 55 0 9 4 17 10 17 6 0 9
3 5 6 -9 10 16 32 31 27 8 -4 10 0 6 10 -4 12 -1 15 15 12 11 -2 23 0 26 6 10
15 15 10 8 -8z"/>
<path d="M2484 1348 l-19 -23 23 19 c21 18 27 26 19 26 -2 0 -12 -10 -23 -22z"/>
<path d="M1256 794 c-3 -8 -3 -21 0 -29 4 -8 1 -15 -6 -15 -9 0 -9 -4 -2 -12
10 -12 12 -18 12 -35 0 -5 5 -1 10 7 8 12 10 12 10 1 0 -11 3 -11 15 -1 8 7
15 11 16 9 6 -32 5 -39 -4 -39 -7 0 -4 -5 6 -11 9 -6 15 -15 11 -20 -11 -18
-13 -69 -3 -69 6 0 6 -7 -1 -20 -8 -15 -8 -20 1 -20 8 0 8 -4 -1 -15 -10 -12
-10 -15 1 -15 11 0 11 -2 -1 -10 -10 -6 -11 -10 -2 -10 6 0 12 -5 12 -11 0 -5
-4 -8 -9 -5 -5 4 -8 -2 -6 -11 2 -10 4 -21 4 -24 1 -10 81 -16 81 -6 0 4 4 6
9 3 5 -3 11 1 15 9 3 8 2 17 -3 19 -10 6 -8 37 4 55 6 10 4 12 -6 6 -12 -8
-12 -6 0 8 11 14 11 17 0 17 -12 0 -12 2 0 9 10 7 10 10 1 13 -10 3 -10 9 0
27 9 18 9 22 0 16 -9 -6 -9 -2 -1 14 7 11 8 21 3 21 -8 0 -9 23 -3 51 0 4 11
6 24 5 12 -1 28 5 35 14 10 10 11 11 6 1 -5 -9 -3 -12 4 -7 8 5 9 13 3 24 -4
9 -6 23 -4 30 3 6 0 12 -6 12 -6 0 -11 6 -11 14 0 14 -23 16 -36 3 -4 -4 -13
-2 -21 4 -10 9 -13 8 -13 -2 0 -12 -2 -12 -9 -1 -4 8 -12 14 -16 14 -4 0 -12
-6 -16 -14 -6 -8 -9 -9 -9 -1 0 11 -24 12 -36 1 -3 -4 -16 -3 -29 2 -17 7 -25
5 -29 -6z"/>
<path d="M1556 794 c-4 -11 -2 -20 3 -22 6 -2 9 -8 5 -13 -3 -5 -1 -9 3 -9 5
0 8 -13 7 -30 -1 -16 2 -30 6 -30 4 0 11 -7 14 -16 3 -8 2 -12 -4 -9 -6 3 -10
2 -10 -4 0 -5 5 -13 11 -17 8 -4 7 -9 -2 -15 -11 -7 -9 -9 6 -9 17 0 17 -2 5
-10 -12 -7 -12 -10 -1 -10 7 0 11 -6 7 -15 -3 -8 0 -15 7 -15 9 0 8 -3 -1 -9
-11 -6 -10 -10 3 -15 13 -5 15 -9 6 -20 -9 -11 -8 -15 6 -20 14 -6 15 -9 4
-15 -9 -6 -10 -11 -2 -15 6 -4 9 -12 6 -17 -4 -5 -1 -9 5 -9 6 0 8 -4 5 -10
-4 -6 14 -10 45 -10 43 0 51 3 46 16 -4 10 -2 13 6 8 7 -5 9 0 6 14 -4 12 -2
22 4 22 5 0 6 5 3 10 -4 6 -2 16 3 23 5 7 10 19 10 27 3 56 15 67 28 25 8 -25
8 -32 0 -28 -6 4 -5 0 1 -9 7 -8 10 -18 6 -21 -3 -4 -1 -7 5 -7 7 0 12 -4 12
-10 0 -5 -8 -7 -17 -4 -17 5 -17 5 0 -6 11 -7 16 -20 13 -35 -3 -18 -1 -22 11
-18 9 4 14 2 11 -3 -5 -7 45 -10 62 -4 3 1 9 2 14 1 5 -1 6 6 2 15 -5 12 -2
15 9 10 12 -4 14 -2 6 11 -6 12 -4 21 7 31 16 12 15 13 -2 8 -15 -5 -17 -4 -8
7 7 8 8 18 4 22 -4 5 -1 5 6 1 11 -7 15 9 15 67 0 14 2 15 15 5 13 -11 14 -10
4 9 -10 18 -9 24 5 32 12 7 14 10 4 11 -11 0 -11 3 -1 15 9 11 10 15 1 15 -8
0 -7 6 3 16 9 8 14 20 10 25 -3 6 0 17 8 26 11 14 11 16 -2 9 -8 -4 -6 0 4 8
17 14 18 16 3 16 -9 0 -17 6 -17 13 0 8 -4 7 -10 -3 -7 -11 -10 -11 -10 -2 0
10 -5 10 -21 1 -12 -6 -19 -7 -15 -1 3 6 -2 8 -13 5 -11 -3 -17 -11 -15 -18 3
-7 1 -16 -5 -19 -6 -4 -8 -13 -4 -21 3 -9 -1 -15 -8 -15 -11 0 -11 -3 1 -10 8
-5 10 -10 3 -10 -6 0 -10 -11 -9 -25 2 -13 0 -22 -4 -20 -5 3 -11 -2 -14 -11
-3 -8 -2 -12 4 -9 6 3 10 1 10 -4 0 -6 -6 -11 -13 -11 -9 0 -14 12 -15 31 0
17 -7 38 -14 47 -9 12 -10 14 0 8 6 -4 12 -2 12 3 0 6 -4 11 -8 11 -5 0 -9 6
-9 13 0 6 -4 21 -9 31 -5 15 -4 17 6 11 9 -5 11 -4 6 4 -4 6 -12 9 -17 6 -5
-4 -9 -1 -9 6 0 9 -3 9 -14 0 -9 -8 -16 -8 -20 -2 -4 6 -13 8 -21 5 -8 -4 -12
-10 -9 -15 3 -5 1 -9 -4 -9 -5 0 -9 -10 -8 -22 1 -13 -4 -29 -10 -35 -7 -7
-10 -21 -8 -30 3 -11 -3 -23 -15 -30 -17 -11 -19 -10 -14 4 4 10 2 14 -5 9
-12 -7 -9 25 4 46 4 7 3 8 -4 4 -11 -7 -17 18 -13 53 2 8 -2 10 -10 5 -9 -5
-10 -2 -5 11 5 15 4 16 -9 5 -12 -10 -15 -10 -15 0 0 9 -3 10 -13 1 -10 -8
-17 -7 -25 1 -9 9 -12 9 -12 -2 0 -12 -2 -12 -9 -2 -6 11 -10 10 -15 -4z"/>
<path d="M2088 790 c-14 -13 -15 -19 -6 -28 9 -9 9 -12 1 -12 -7 0 -11 -9 -10
-20 1 -11 6 -20 12 -20 7 0 7 -3 0 -8 -13 -9 -14 -45 -1 -54 6 -4 6 -12 -2
-20 -7 -8 -7 -19 -2 -28 5 -9 5 -19 -1 -26 -7 -8 -6 -14 1 -19 8 -5 8 -10 0
-20 -8 -10 -8 -15 0 -20 8 -5 7 -11 -1 -22 -10 -11 -10 -16 0 -23 11 -6 11 -9
0 -13 -11 -4 -11 -6 -1 -6 7 -1 11 -5 8 -10 -3 -5 1 -11 9 -15 8 -3 17 -1 20
4 3 5 18 5 36 0 18 -5 29 -7 26 -3 -4 3 -2 15 4 26 9 15 8 18 -3 11 -11 -6
-11 -5 1 9 11 14 11 17 0 17 -12 0 -12 2 0 9 11 7 11 9 0 14 -9 4 -10 8 -4 14
6 4 10 15 10 23 0 8 -4 18 -10 23 -6 4 -4 11 5 17 12 8 13 11 1 19 -11 7 -11
9 0 14 12 5 12 6 0 6 -11 1 -11 4 -1 16 9 11 9 15 1 15 -9 0 -9 5 -1 20 8 15
8 20 -1 20 -8 0 -8 4 1 15 10 12 10 15 -1 15 -12 0 -12 2 0 9 11 7 11 9 0 14
-12 5 -12 7 0 15 10 8 8 13 -10 26 -18 12 -25 13 -31 3 -5 -7 -8 -8 -8 -1 0
16 -23 13 -42 -6z"/>
<path d="M2388 801 c-1 -6 -14 -12 -27 -14 -14 -2 -27 -9 -29 -15 -2 -7 -10
-12 -18 -12 -9 0 -12 -4 -9 -10 3 -5 -1 -10 -9 -10 -8 0 -18 -5 -22 -12 -5 -7
-3 -8 5 -3 10 5 9 2 0 -13 -7 -12 -16 -19 -20 -16 -4 2 -5 -5 -2 -16 3 -13 0
-20 -8 -20 -11 0 -11 -2 1 -10 12 -8 12 -10 1 -10 -11 0 -11 -3 -1 -15 7 -8 8
-15 3 -15 -6 0 -8 -11 -5 -25 2 -14 8 -23 12 -20 3 2 6 -9 5 -26 -1 -16 3 -33
8 -36 6 -3 7 -1 3 5 -4 7 -5 12 -1 12 3 0 10 -11 15 -25 5 -14 17 -25 25 -25
9 0 13 -4 10 -10 -4 -6 1 -7 11 -3 12 4 15 3 10 -5 -5 -8 -2 -10 8 -6 9 3 16
1 16 -6 0 -7 8 -9 20 -5 13 4 20 2 20 -7 0 -10 3 -9 10 2 7 11 10 11 10 2 0
-9 5 -10 18 -4 9 5 23 7 31 4 8 -2 11 0 7 6 -4 6 2 8 16 4 14 -3 19 -2 14 6
-6 11 12 17 37 13 4 0 7 5 7 13 0 8 7 17 16 20 8 3 12 10 9 16 -3 5 2 10 12
10 15 0 16 2 3 10 -13 8 -8 14 11 12 7 -1 3 47 -5 56 -3 3 -6 0 -6 -5 0 -6
-15 -10 -32 -9 -18 1 -39 -3 -47 -9 -12 -8 -13 -7 -6 4 5 10 4 12 -3 7 -7 -4
-12 -13 -12 -20 0 -8 -14 -20 -30 -28 -32 -15 -80 -13 -80 4 0 5 -5 6 -12 2
-8 -5 -9 -2 -5 9 4 12 1 17 -9 17 -10 0 -14 6 -10 15 3 8 0 15 -7 15 -7 0 -8
3 -2 8 6 4 10 16 10 27 0 11 6 26 15 33 8 8 9 11 3 7 -7 -3 -13 -4 -13 -1 0 3
13 12 29 20 22 12 31 12 41 3 10 -9 11 -9 6 1 -5 7 -1 12 9 12 9 0 13 -4 10
-10 -3 -6 1 -7 9 -4 11 4 19 -2 25 -17 5 -13 10 -20 10 -15 1 6 8 1 17 -10 8
-10 12 -12 8 -4 -7 13 -5 13 9 1 13 -10 20 -11 31 -2 11 10 17 8 25 -6 6 -11
11 -13 11 -5 0 7 4 10 10 7 12 -7 2 23 -14 44 -8 11 -8 13 2 7 6 -4 12 -2 12
3 0 6 -7 11 -15 11 -9 0 -12 6 -8 17 4 9 2 14 -3 10 -5 -3 -20 8 -33 24 -20
25 -26 27 -39 17 -12 -10 -14 -10 -8 0 4 6 2 13 -3 13 -21 3 -26 4 -38 12 -8
5 -13 3 -13 -5 0 -10 -2 -10 -9 1 -6 9 -10 10 -16 2 -5 -9 -10 -9 -20 -1 -9 7
-14 7 -17 1z"/>
<path d="M2690 790 c-6 -11 -8 -20 -4 -20 3 0 0 -8 -7 -17 -10 -11 -10 -14 -1
-9 7 4 12 2 12 -6 0 -8 -6 -20 -12 -27 -11 -12 -10 -13 6 -7 15 5 17 4 8 -7
-7 -8 -9 -17 -5 -20 3 -4 0 -7 -8 -7 -12 0 -12 -2 0 -9 13 -8 13 -12 0 -27 -9
-11 -9 -15 -1 -10 15 9 16 -6 1 -21 -7 -7 -5 -15 6 -27 15 -15 12 -21 -9 -17
-5 1 -4 -4 2 -11 12 -15 10 -57 -3 -78 -6 -10 -4 -12 7 -7 12 4 14 1 11 -14
-4 -15 0 -19 20 -19 14 0 33 -3 43 -7 13 -5 15 -3 9 7 -6 9 -4 11 5 5 14 -9
108 -7 122 1 4 3 3 16 -3 30 -8 22 -7 25 6 21 12 -5 13 -3 4 11 -12 20 -55 43
-64 34 -3 -3 -14 -7 -25 -9 -17 -2 -20 2 -18 25 2 24 6 27 37 27 20 0 39 -4
43 -10 5 -6 8 -5 8 3 0 7 4 11 9 8 10 -6 6 37 -5 55 -4 8 -3 9 4 5 13 -8 16 4
4 19 -11 16 -42 17 -60 3 -10 -8 -13 -9 -9 -1 4 6 3 14 -3 18 -5 3 -10 2 -10
-4 0 -6 -6 -8 -14 -5 -8 3 -12 13 -9 25 5 16 8 17 21 7 11 -9 13 -9 9 -1 -4 6
-3 14 3 18 5 3 10 -2 10 -12 1 -17 1 -17 14 0 9 12 16 14 21 8 3 -6 11 -11 16
-11 6 0 8 4 4 9 -3 5 -1 13 5 16 8 5 7 12 -2 23 -7 9 -8 13 -2 9 8 -4 11 2 10
17 0 13 -4 22 -8 19 -5 -2 -8 1 -8 8 0 8 -4 9 -13 0 -10 -7 -17 -7 -24 0 -8 8
-13 8 -17 0 -5 -8 -13 -8 -28 0 -16 9 -23 8 -29 -2 -7 -12 -9 -11 -9 1 0 10
-3 11 -12 2 -7 -7 -17 -8 -29 -1 -14 7 -21 5 -29 -11z"/>
</g>
</svg>
